<svg xmlns="http://www.w3.org/2000/svg" xmlns:xlink="http://www.w3.org/1999/xlink" width="500" zoomAndPan="magnify" viewBox="0 0 375 119.999999" height="160" preserveAspectRatio="xMidYMid meet" version="1.0"><defs><g/><clipPath id="524289fe2d"><path d="M 15 1.132812 L 93 1.132812 L 93 103 L 15 103 Z M 15 1.132812 " clip-rule="nonzero"/></clipPath><clipPath id="42db8c0222"><path d="M 0.679688 13 L 14 13 L 14 81 L 0.679688 81 Z M 0.679688 13 " clip-rule="nonzero"/></clipPath><clipPath id="313f7d7ea2"><path d="M 34.582031 69.875 L 94.617188 69.875 L 94.617188 90.8125 L 34.582031 90.8125 Z M 34.582031 69.875 " clip-rule="nonzero"/></clipPath><clipPath id="962a5dd13d"><path d="M 41.332031 69.875 L 87.789062 69.875 C 91.515625 69.875 94.539062 72.898438 94.539062 76.625 L 94.539062 84.0625 C 94.539062 87.789062 91.515625 90.8125 87.789062 90.8125 L 41.332031 90.8125 C 37.605469 90.8125 34.582031 87.789062 34.582031 84.0625 L 34.582031 76.625 C 34.582031 72.898438 37.605469 69.875 41.332031 69.875 Z M 41.332031 69.875 " clip-rule="nonzero"/></clipPath><clipPath id="4ba20e918f"><path d="M 0.582031 0.875 L 60.617188 0.875 L 60.617188 21.8125 L 0.582031 21.8125 Z M 0.582031 0.875 " clip-rule="nonzero"/></clipPath><clipPath id="a7cb320793"><path d="M 7.332031 0.875 L 53.789062 0.875 C 57.515625 0.875 60.539062 3.898438 60.539062 7.625 L 60.539062 15.0625 C 60.539062 18.789062 57.515625 21.8125 53.789062 21.8125 L 7.332031 21.8125 C 3.605469 21.8125 0.582031 18.789062 0.582031 15.0625 L 0.582031 7.625 C 0.582031 3.898438 3.605469 0.875 7.332031 0.875 Z M 7.332031 0.875 " clip-rule="nonzero"/></clipPath><clipPath id="1ac0da137d"><rect x="0" width="61" y="0" height="22"/></clipPath><clipPath id="2cbab005df"><path d="M 0.121094 2 L 7 2 L 7 8 L 0.121094 8 Z M 0.121094 2 " clip-rule="nonzero"/></clipPath><clipPath id="75a2999f76"><path d="M 58 2 L 65.878906 2 L 65.878906 8 L 58 8 Z M 58 2 " clip-rule="nonzero"/></clipPath><clipPath id="aa68cb0b41"><rect x="0" width="66" y="0" height="10"/></clipPath><clipPath id="4c94233ec6"><path d="M 102 55 L 360.679688 55 L 360.679688 106.800781 L 102 106.800781 Z M 102 55 " clip-rule="nonzero"/></clipPath><clipPath id="cd5d89f070"><rect x="0" width="259" y="0" height="52"/></clipPath><clipPath id="502d4f9a23"><rect x="0" width="134" y="0" height="51"/></clipPath><clipPath id="f3c006de27"><rect x="0" width="361" y="0" height="107"/></clipPath></defs><g transform="matrix(1, 0, 0, 1, 7, 6)"><g clip-path="url(#f3c006de27)"><path fill="#c2e3fe" d="M 25.992188 19.957031 L 57.824219 19.957031 C 59.070312 19.957031 60.078125 19.125 60.078125 18.058594 L 60.078125 10.8125 C 60.078125 9.800781 59.011719 8.910156 57.824219 8.910156 L 25.992188 8.910156 C 24.746094 8.910156 23.734375 9.742188 23.734375 10.753906 L 23.734375 18.058594 C 23.734375 19.125 24.746094 19.957031 25.992188 19.957031 Z M 25.992188 19.957031 " fill-opacity="1" fill-rule="evenodd"/><g clip-path="url(#524289fe2d)"><path fill="#0d91fd" d="M 57.824219 22.453125 L 25.992188 22.453125 C 23.378906 22.453125 21.242188 20.492188 21.242188 18.117188 L 21.242188 10.8125 C 21.242188 8.375 23.378906 6.417969 25.992188 6.417969 L 57.824219 6.417969 C 60.4375 6.417969 62.574219 8.375 62.574219 10.8125 L 62.574219 18.117188 C 62.574219 20.492188 60.4375 22.453125 57.824219 22.453125 Z M 22.785156 31.539062 L 85.320312 31.539062 C 86.03125 31.539062 86.566406 32.074219 86.566406 32.785156 C 86.566406 33.4375 86.03125 34.03125 85.320312 34.03125 L 22.785156 34.03125 C 22.070312 34.03125 21.539062 33.4375 21.539062 32.785156 C 21.539062 32.074219 22.070312 31.539062 22.785156 31.539062 Z M 22.785156 40.03125 L 85.320312 40.03125 C 86.03125 40.03125 86.566406 40.625 86.566406 41.277344 C 86.566406 41.988281 86.03125 42.523438 85.320312 42.523438 L 22.785156 42.523438 C 22.070312 42.523438 21.539062 41.988281 21.539062 41.277344 C 21.539062 40.625 22.070312 40.03125 22.785156 40.03125 Z M 22.785156 48.523438 L 85.320312 48.523438 C 86.03125 48.523438 86.566406 49.117188 86.566406 49.769531 C 86.566406 50.480469 86.03125 51.015625 85.320312 51.015625 L 22.785156 51.015625 C 22.070312 51.015625 21.539062 50.480469 21.539062 49.769531 C 21.539062 49.117188 22.070312 48.523438 22.785156 48.523438 Z M 22.785156 57.074219 L 85.320312 57.074219 C 86.03125 57.074219 86.566406 57.609375 86.566406 58.320312 C 86.566406 58.976562 86.03125 59.570312 85.320312 59.570312 L 22.785156 59.570312 C 22.070312 59.570312 21.539062 58.976562 21.539062 58.320312 C 21.539062 57.609375 22.070312 57.074219 22.785156 57.074219 Z M 35.554688 66.8125 L 92.265625 66.8125 L 92.265625 25.480469 L 69.164062 25.480469 C 68.511719 25.480469 67.917969 24.886719 67.917969 24.234375 L 67.917969 1.132812 L 25.574219 1.132812 C 20.230469 1.132812 15.894531 5.527344 15.894531 10.871094 L 15.894531 92.707031 C 15.894531 98.109375 20.230469 102.445312 25.574219 102.445312 L 82.527344 102.445312 C 87.457031 102.445312 91.554688 98.765625 92.148438 94.011719 L 35.554688 94.011719 C 31.335938 94.011719 27.953125 90.867188 27.953125 87.066406 L 27.953125 73.761719 C 27.953125 69.902344 31.335938 66.8125 35.554688 66.8125 Z M 35.554688 66.8125 " fill-opacity="1" fill-rule="evenodd"/></g><path fill="#c2e3fe" d="M 70.414062 2.914062 L 70.414062 22.984375 L 90.484375 22.984375 Z M 70.414062 2.914062 " fill-opacity="1" fill-rule="evenodd"/><g clip-path="url(#42db8c0222)"><path fill="#c2e3fe" d="M 13.402344 80.652344 L 13.402344 13.898438 C 10.667969 16.335938 5.859375 19.777344 0.691406 19.363281 Z M 13.402344 80.652344 " fill-opacity="1" fill-rule="evenodd"/></g><path fill="#c2e3fe" d="M 65.957031 72.632812 C 59.070312 72.632812 58.714844 80.652344 60.257812 84.570312 C 62.15625 89.382812 69.996094 89.976562 71.421875 83.324219 L 73.976562 83.976562 C 72.964844 88.015625 70.175781 90.390625 65.957031 90.390625 C 59.722656 90.390625 56.933594 85.9375 56.933594 80.292969 C 56.933594 70.199219 66.671875 68.773438 70.886719 71.921875 C 72.195312 72.871094 73.144531 74.296875 73.621094 76.078125 L 71.125 76.671875 C 70.234375 74.058594 68.691406 72.632812 65.957031 72.632812 Z M 93.515625 69.308594 L 35.554688 69.308594 C 32.761719 69.308594 30.445312 71.328125 30.445312 73.761719 L 30.445312 87.066406 C 30.445312 89.5 32.703125 91.519531 35.554688 91.519531 L 93.515625 91.519531 C 96.363281 91.519531 98.621094 89.5 98.621094 87.066406 L 98.621094 73.761719 C 98.621094 71.328125 96.363281 69.308594 93.515625 69.308594 Z M 53.25 75.304688 C 56.160156 81.125 53.726562 90.390625 45.171875 90.390625 C 39.53125 90.390625 35.910156 86.054688 35.910156 80.652344 C 35.910156 68.535156 49.566406 67.703125 53.25 75.304688 Z M 77.125 90.09375 L 77.125 70.792969 C 79.441406 70.792969 85.378906 70.613281 87.21875 71.03125 C 94.761719 72.8125 94.644531 85.34375 89.535156 88.785156 C 87.992188 89.796875 86.03125 90.09375 84.132812 90.09375 Z M 77.125 90.09375 " fill-opacity="1" fill-rule="evenodd"/><path fill="#c2e3fe" d="M 49.863281 86.175781 C 53.132812 82.609375 52.539062 72.632812 45.171875 72.632812 C 40.777344 72.632812 38.523438 75.839844 38.523438 80.710938 C 38.523438 88.609375 46.359375 90.035156 49.863281 86.175781 Z M 49.863281 86.175781 " fill-opacity="1" fill-rule="evenodd"/><path fill="#c2e3fe" d="M 79.675781 73.050781 L 79.675781 87.777344 C 84.664062 87.777344 88.464844 88.609375 89.953125 83.976562 C 90.960938 80.886719 90.78125 74.890625 87.042969 73.464844 C 85.617188 72.871094 81.578125 73.050781 79.675781 73.050781 Z M 79.675781 73.050781 " fill-opacity="1" fill-rule="evenodd"/><g clip-path="url(#313f7d7ea2)"><g clip-path="url(#962a5dd13d)"><g transform="matrix(1, 0, 0, 1, 34, 69)"><g clip-path="url(#1ac0da137d)"><g clip-path="url(#4ba20e918f)"><g clip-path="url(#a7cb320793)"><path fill="#c2e3fe" d="M 0.582031 0.875 L 60.535156 0.875 L 60.535156 21.8125 L 0.582031 21.8125 Z M 0.582031 0.875 " fill-opacity="1" fill-rule="nonzero"/></g></g></g></g></g></g><g transform="matrix(1, 0, 0, 1, 32, 75)"><g clip-path="url(#aa68cb0b41)"><g clip-path="url(#2cbab005df)"><g fill="#0d91fd" fill-opacity="1"><g transform="translate(0.343548, 7.807583)"><g><path d="M 2.953125 0 L 2.953125 -3.4375 C 2.953125 -3.570312 2.898438 -3.6875 2.796875 -3.78125 C 2.703125 -3.875 2.585938 -3.921875 2.453125 -3.921875 L 0.28125 -3.921875 L 0.28125 -4.90625 L 2.453125 -4.90625 C 2.722656 -4.90625 2.96875 -4.835938 3.1875 -4.703125 C 3.40625 -4.566406 3.582031 -4.390625 3.71875 -4.171875 C 3.851562 -3.953125 3.921875 -3.707031 3.921875 -3.4375 L 3.921875 0 Z M 3.921875 -3.921875 L 3.921875 -4.90625 L 6.578125 -4.90625 L 6.578125 -3.921875 Z M 3.921875 -3.921875 "/></g></g></g></g><g fill="#0d91fd" fill-opacity="1"><g transform="translate(7.550387, 7.807583)"><g><path d="M 5.59375 -0.984375 L 5.59375 -3.4375 C 5.59375 -3.570312 5.546875 -3.6875 5.453125 -3.78125 C 5.359375 -3.875 5.242188 -3.921875 5.109375 -3.921875 L 1.265625 -3.921875 L 1.265625 -4.90625 L 5.109375 -4.90625 C 5.378906 -4.90625 5.625 -4.835938 5.84375 -4.703125 C 6.070312 -4.566406 6.25 -4.390625 6.375 -4.171875 C 6.507812 -3.953125 6.578125 -3.707031 6.578125 -3.4375 L 6.578125 -0.984375 Z M 1.75 0 C 1.476562 0 1.226562 -0.0664062 1 -0.203125 C 0.78125 -0.335938 0.601562 -0.515625 0.46875 -0.734375 C 0.34375 -0.953125 0.28125 -1.195312 0.28125 -1.46875 L 0.28125 -3.921875 L 1.265625 -3.921875 L 1.265625 -1.46875 C 1.265625 -1.332031 1.3125 -1.21875 1.40625 -1.125 C 1.5 -1.03125 1.613281 -0.984375 1.75 -0.984375 L 5.59375 -0.984375 L 5.59375 0 Z M 1.75 0 "/></g></g></g><g fill="#0d91fd" fill-opacity="1"><g transform="translate(14.757227, 7.807583)"><g><path d="M 3.921875 0 C 3.679688 0 3.484375 -0.0507812 3.328125 -0.15625 C 3.171875 -0.269531 3.035156 -0.421875 2.921875 -0.609375 C 2.804688 -0.796875 2.703125 -1.015625 2.609375 -1.265625 C 2.523438 -1.523438 2.441406 -1.800781 2.359375 -2.09375 C 2.304688 -2.300781 2.25 -2.507812 2.1875 -2.71875 C 2.125 -2.9375 2.050781 -3.132812 1.96875 -3.3125 C 1.882812 -3.5 1.785156 -3.644531 1.671875 -3.75 C 1.554688 -3.863281 1.421875 -3.921875 1.265625 -3.921875 L 1.265625 -4.90625 C 1.566406 -4.90625 1.828125 -4.835938 2.046875 -4.703125 C 2.265625 -4.566406 2.445312 -4.378906 2.59375 -4.140625 C 2.75 -3.910156 2.878906 -3.640625 2.984375 -3.328125 C 3.097656 -3.023438 3.207031 -2.695312 3.3125 -2.34375 C 3.34375 -2.21875 3.378906 -2.070312 3.421875 -1.90625 C 3.472656 -1.75 3.523438 -1.597656 3.578125 -1.453125 C 3.628906 -1.316406 3.6875 -1.203125 3.75 -1.109375 C 3.8125 -1.015625 3.867188 -0.96875 3.921875 -0.96875 C 3.984375 -0.96875 4.039062 -1.015625 4.09375 -1.109375 C 4.15625 -1.210938 4.210938 -1.332031 4.265625 -1.46875 C 4.316406 -1.613281 4.363281 -1.765625 4.40625 -1.921875 C 4.457031 -2.078125 4.5 -2.21875 4.53125 -2.34375 C 4.625 -2.695312 4.726562 -3.03125 4.84375 -3.34375 C 4.957031 -3.65625 5.085938 -3.925781 5.234375 -4.15625 C 5.390625 -4.394531 5.578125 -4.578125 5.796875 -4.703125 C 6.015625 -4.835938 6.273438 -4.90625 6.578125 -4.90625 L 6.578125 -3.921875 C 6.421875 -3.921875 6.285156 -3.863281 6.171875 -3.75 C 6.054688 -3.632812 5.957031 -3.484375 5.875 -3.296875 C 5.789062 -3.117188 5.71875 -2.921875 5.65625 -2.703125 C 5.59375 -2.492188 5.53125 -2.289062 5.46875 -2.09375 C 5.382812 -1.789062 5.300781 -1.515625 5.21875 -1.265625 C 5.132812 -1.015625 5.035156 -0.789062 4.921875 -0.59375 C 4.804688 -0.40625 4.664062 -0.257812 4.5 -0.15625 C 4.34375 -0.0507812 4.148438 0 3.921875 0 Z M 0.28125 0 L 0.28125 -3.921875 L 1.265625 -3.921875 L 1.265625 0 Z M 6.578125 0 L 6.578125 -3.921875 L 7.5625 -3.921875 L 7.5625 0 Z M 6.578125 0 "/></g></g></g><g fill="#0d91fd" fill-opacity="1"><g transform="translate(22.943634, 7.807583)"><g><path d="M 5.59375 -3.4375 C 5.59375 -3.570312 5.546875 -3.6875 5.453125 -3.78125 C 5.359375 -3.875 5.242188 -3.921875 5.109375 -3.921875 L 1.265625 -3.921875 L 1.265625 -4.90625 L 5.109375 -4.90625 C 5.378906 -4.90625 5.625 -4.835938 5.84375 -4.703125 C 6.070312 -4.566406 6.25 -4.390625 6.375 -4.171875 C 6.507812 -3.953125 6.578125 -3.707031 6.578125 -3.4375 Z M 5.59375 -0.984375 L 5.59375 -1.46875 C 5.59375 -1.601562 5.546875 -1.71875 5.453125 -1.8125 C 5.359375 -1.90625 5.242188 -1.953125 5.109375 -1.953125 L 1.75 -1.953125 C 1.476562 -1.953125 1.226562 -2.019531 1 -2.15625 C 0.78125 -2.289062 0.601562 -2.46875 0.46875 -2.6875 C 0.34375 -2.914062 0.28125 -3.164062 0.28125 -3.4375 L 0.28125 -3.921875 L 1.265625 -3.921875 L 1.265625 -3.4375 C 1.265625 -3.300781 1.3125 -3.179688 1.40625 -3.078125 C 1.5 -2.984375 1.613281 -2.9375 1.75 -2.9375 L 5.109375 -2.9375 C 5.378906 -2.9375 5.625 -2.867188 5.84375 -2.734375 C 6.070312 -2.609375 6.25 -2.429688 6.375 -2.203125 C 6.507812 -1.984375 6.578125 -1.738281 6.578125 -1.46875 L 6.578125 -0.984375 Z M 1.75 0 C 1.476562 0 1.226562 -0.0664062 1 -0.203125 C 0.78125 -0.335938 0.601562 -0.515625 0.46875 -0.734375 C 0.34375 -0.960938 0.28125 -1.207031 0.28125 -1.46875 L 1.265625 -1.46875 C 1.265625 -1.332031 1.3125 -1.21875 1.40625 -1.125 C 1.5 -1.03125 1.613281 -0.984375 1.75 -0.984375 L 5.59375 -0.984375 L 5.59375 0 Z M 1.75 0 "/></g></g></g><g fill="#014379" fill-opacity="1"><g transform="translate(30.150833, 7.807583)"><g><path d="M 3.15625 0 L 3.15625 -3.84375 C 3.15625 -3.976562 3.101562 -4.09375 3 -4.1875 C 2.90625 -4.289062 2.789062 -4.34375 2.65625 -4.34375 L 0.28125 -4.34375 L 0.28125 -4.90625 L 2.65625 -4.90625 C 2.863281 -4.90625 3.046875 -4.859375 3.203125 -4.765625 C 3.359375 -4.671875 3.476562 -4.546875 3.5625 -4.390625 C 3.65625 -4.234375 3.703125 -4.050781 3.703125 -3.84375 L 3.703125 0 Z M 3.703125 -4.34375 L 3.703125 -4.90625 L 6.578125 -4.90625 L 6.578125 -4.34375 Z M 3.703125 -4.34375 "/></g></g></g><g fill="#014379" fill-opacity="1"><g transform="translate(37.357673, 7.807583)"><g><path d="M 6.015625 -0.5625 L 6.015625 -3.84375 C 6.015625 -3.976562 5.96875 -4.09375 5.875 -4.1875 C 5.78125 -4.289062 5.664062 -4.34375 5.53125 -4.34375 L 0.84375 -4.34375 L 0.84375 -4.90625 L 5.53125 -4.90625 C 5.863281 -4.90625 6.117188 -4.8125 6.296875 -4.625 C 6.484375 -4.445312 6.578125 -4.1875 6.578125 -3.84375 L 6.578125 -0.5625 Z M 1.328125 0 C 0.992188 0 0.734375 -0.0859375 0.546875 -0.265625 C 0.367188 -0.453125 0.28125 -0.710938 0.28125 -1.046875 L 0.28125 -4.34375 L 0.84375 -4.34375 L 0.84375 -1.046875 C 0.84375 -0.910156 0.890625 -0.796875 0.984375 -0.703125 C 1.078125 -0.609375 1.191406 -0.5625 1.328125 -0.5625 L 6.015625 -0.5625 L 6.015625 0 Z M 1.328125 0 "/></g></g></g><g fill="#014379" fill-opacity="1"><g transform="translate(44.564512, 7.807583)"><g><path d="M 6.015625 -0.5625 L 6.015625 -3.84375 C 6.015625 -3.976562 5.96875 -4.09375 5.875 -4.1875 C 5.78125 -4.289062 5.664062 -4.34375 5.53125 -4.34375 L 0.84375 -4.34375 L 0.84375 -4.90625 L 5.53125 -4.90625 C 5.863281 -4.90625 6.117188 -4.8125 6.296875 -4.625 C 6.484375 -4.445312 6.578125 -4.1875 6.578125 -3.84375 L 6.578125 -0.5625 Z M 1.328125 0 C 0.992188 0 0.734375 -0.0859375 0.546875 -0.265625 C 0.367188 -0.453125 0.28125 -0.710938 0.28125 -1.046875 L 0.28125 -4.34375 L 0.84375 -4.34375 L 0.84375 -1.046875 C 0.84375 -0.910156 0.890625 -0.796875 0.984375 -0.703125 C 1.078125 -0.609375 1.191406 -0.5625 1.328125 -0.5625 L 6.015625 -0.5625 L 6.015625 0 Z M 1.328125 0 "/></g></g></g><g fill="#014379" fill-opacity="1"><g transform="translate(51.771351, 7.807583)"><g><path d="M 1.328125 0 C 1.128906 0 0.945312 -0.0390625 0.78125 -0.125 C 0.625 -0.21875 0.5 -0.34375 0.40625 -0.5 C 0.320312 -0.664062 0.28125 -0.847656 0.28125 -1.046875 L 0.28125 -4.90625 L 0.84375 -4.90625 L 0.84375 -1.046875 C 0.84375 -0.910156 0.890625 -0.796875 0.984375 -0.703125 C 1.078125 -0.609375 1.191406 -0.5625 1.328125 -0.5625 L 6.15625 -0.5625 L 6.15625 0 Z M 1.328125 0 "/></g></g></g><g clip-path="url(#75a2999f76)"><g fill="#014379" fill-opacity="1"><g transform="translate(58.558379, 7.807583)"><g><path d="M 6.015625 -3.4375 C 6.015625 -3.675781 5.960938 -3.882812 5.859375 -4.0625 C 5.753906 -4.25 5.597656 -4.34375 5.390625 -4.34375 L 0.84375 -4.34375 L 0.84375 -4.90625 L 5.53125 -4.90625 C 5.863281 -4.90625 6.117188 -4.769531 6.296875 -4.5 C 6.484375 -4.226562 6.578125 -3.875 6.578125 -3.4375 Z M 6.015625 -0.5625 L 6.015625 -1.6875 C 6.015625 -1.820312 5.96875 -1.9375 5.875 -2.03125 C 5.78125 -2.125 5.664062 -2.171875 5.53125 -2.171875 L 1.328125 -2.171875 C 0.992188 -2.171875 0.734375 -2.257812 0.546875 -2.4375 C 0.367188 -2.625 0.28125 -2.882812 0.28125 -3.21875 L 0.28125 -4.34375 L 0.84375 -4.34375 L 0.84375 -3.21875 C 0.84375 -3.082031 0.890625 -2.96875 0.984375 -2.875 C 1.085938 -2.78125 1.203125 -2.734375 1.328125 -2.734375 L 5.53125 -2.734375 C 5.863281 -2.734375 6.117188 -2.640625 6.296875 -2.453125 C 6.484375 -2.273438 6.578125 -2.019531 6.578125 -1.6875 L 6.578125 -0.5625 Z M 1.328125 0 C 0.992188 0 0.734375 -0.132812 0.546875 -0.40625 C 0.367188 -0.675781 0.28125 -1.03125 0.28125 -1.46875 L 0.84375 -1.46875 C 0.84375 -1.226562 0.894531 -1.015625 1 -0.828125 C 1.113281 -0.648438 1.269531 -0.5625 1.46875 -0.5625 L 6.015625 -0.5625 L 6.015625 0 Z M 1.328125 0 "/></g></g></g></g></g></g><g clip-path="url(#4c94233ec6)"><g transform="matrix(1, 0, 0, 1, 102, 55)"><g clip-path="url(#cd5d89f070)"><g fill="#c2e3fe" fill-opacity="1"><g transform="translate(1.101688, 42.080815)"><g><path d="M 36.484375 -3.390625 L 36.484375 -8.265625 C 36.484375 -9.742188 36.117188 -10.925781 35.390625 -11.8125 C 34.671875 -12.707031 33.90625 -13.15625 33.09375 -13.15625 L 8.015625 -13.15625 L 8.015625 -16.546875 L 33.09375 -16.546875 C 33.90625 -16.546875 34.671875 -16.988281 35.390625 -17.875 C 36.117188 -18.769531 36.484375 -19.953125 36.484375 -21.421875 C 36.484375 -22.890625 36.117188 -24.066406 35.390625 -24.953125 C 34.671875 -25.847656 33.90625 -26.296875 33.09375 -26.296875 L 5.046875 -26.296875 L 5.046875 -29.6875 L 33.09375 -29.6875 C 34.726562 -29.6875 36.039062 -29.285156 37.03125 -28.484375 C 38.019531 -27.679688 38.738281 -26.640625 39.1875 -25.359375 C 39.644531 -24.085938 39.875 -22.773438 39.875 -21.421875 C 39.875 -19.867188 39.664062 -18.582031 39.25 -17.5625 C 38.84375 -16.539062 38.285156 -15.632812 37.578125 -14.84375 C 38.285156 -14.050781 38.84375 -13.203125 39.25 -12.296875 C 39.664062 -11.390625 39.875 -10.046875 39.875 -8.265625 L 39.875 -3.390625 Z M 8.015625 0 C 6.828125 0 5.75 -0.28125 4.78125 -0.84375 C 3.820312 -1.414062 3.066406 -2.179688 2.515625 -3.140625 C 1.972656 -4.097656 1.703125 -5.171875 1.703125 -6.359375 L 1.703125 -26.296875 L 5.046875 -26.296875 L 5.046875 -6.359375 C 5.046875 -5.546875 5.34375 -4.847656 5.9375 -4.265625 C 6.53125 -3.679688 7.222656 -3.390625 8.015625 -3.390625 L 36.484375 -3.390625 L 36.484375 0 Z M 8.015625 0 "/></g></g></g><g fill="#c2e3fe" fill-opacity="1"><g transform="translate(44.794958, 42.080815)"><g><path d="M 8.0625 0 C 6.84375 0 5.75 -0.273438 4.78125 -0.828125 C 3.820312 -1.378906 3.066406 -2.132812 2.515625 -3.09375 C 1.972656 -4.0625 1.703125 -5.148438 1.703125 -6.359375 L 1.703125 -29.6875 L 5.09375 -29.6875 L 5.09375 -6.359375 C 5.09375 -5.546875 5.378906 -4.847656 5.953125 -4.265625 C 6.535156 -3.679688 7.238281 -3.390625 8.0625 -3.390625 L 36.484375 -3.390625 L 36.484375 0 Z M 36.484375 -3.390625 L 36.484375 -29.6875 L 39.875 -29.6875 L 39.875 -3.390625 Z M 36.484375 -3.390625 "/></g></g></g><g fill="#c2e3fe" fill-opacity="1"><g transform="translate(88.488228, 42.080815)"><g><path d="M 1.703125 -26.296875 L 1.703125 -29.6875 L 37.328125 -29.6875 L 37.328125 -26.296875 Z M 24.1875 0 C 23 0 21.921875 -0.28125 20.953125 -0.84375 C 19.992188 -1.414062 19.238281 -2.179688 18.6875 -3.140625 C 18.132812 -4.097656 17.859375 -5.171875 17.859375 -6.359375 L 17.859375 -23.328125 L 21.203125 -23.328125 L 21.203125 -6.359375 C 21.203125 -5.546875 21.5 -4.847656 22.09375 -4.265625 C 22.695312 -3.679688 23.394531 -3.390625 24.1875 -3.390625 L 37.328125 -3.390625 L 37.328125 0 Z M 1.703125 0 L 1.703125 -3.390625 L 17.8125 -3.390625 L 17.8125 0 Z M 1.703125 0 "/></g></g></g><g fill="#c2e3fe" fill-opacity="1"><g transform="translate(129.636292, 42.080815)"><g><path d="M 8.0625 0 C 6.84375 0 5.75 -0.273438 4.78125 -0.828125 C 3.820312 -1.378906 3.066406 -2.132812 2.515625 -3.09375 C 1.972656 -4.0625 1.703125 -5.148438 1.703125 -6.359375 L 1.703125 -29.6875 L 5.09375 -29.6875 L 5.09375 -6.359375 C 5.09375 -5.546875 5.378906 -4.847656 5.953125 -4.265625 C 6.535156 -3.679688 7.238281 -3.390625 8.0625 -3.390625 L 37.328125 -3.390625 L 37.328125 0 Z M 8.0625 0 "/></g></g></g><g fill="#c2e3fe" fill-opacity="1"><g transform="translate(170.784355, 42.080815)"><g><path d="M 36.484375 -3.390625 L 36.484375 -23.328125 C 36.484375 -24.148438 36.191406 -24.847656 35.609375 -25.421875 C 35.035156 -26.003906 34.335938 -26.296875 33.515625 -26.296875 L 5.09375 -26.296875 L 5.09375 -29.6875 L 33.515625 -29.6875 C 34.734375 -29.6875 35.820312 -29.410156 36.78125 -28.859375 C 37.738281 -28.316406 38.492188 -27.5625 39.046875 -26.59375 C 39.597656 -25.632812 39.875 -24.546875 39.875 -23.328125 L 39.875 -3.390625 Z M 1.703125 0 L 1.703125 -26.296875 L 5.09375 -26.296875 L 5.09375 -3.390625 L 36.484375 -3.390625 L 36.484375 0 Z M 1.703125 0 "/></g></g></g><g fill="#c2e3fe" fill-opacity="1"><g transform="translate(214.477625, 42.080815)"><g><path d="M 36.484375 0 L 36.484375 -5.9375 C 36.484375 -6.5 36.347656 -7.101562 36.078125 -7.75 C 35.804688 -8.40625 35.453125 -8.972656 35.015625 -9.453125 C 34.578125 -9.941406 34.078125 -10.1875 33.515625 -10.1875 L 8.0625 -10.1875 L 8.0625 -13.578125 L 33.515625 -13.578125 C 34.078125 -13.578125 34.578125 -13.816406 35.015625 -14.296875 C 35.453125 -14.773438 35.804688 -15.347656 36.078125 -16.015625 C 36.347656 -16.679688 36.484375 -17.28125 36.484375 -17.8125 L 36.484375 -23.328125 C 36.484375 -24.148438 36.191406 -24.847656 35.609375 -25.421875 C 35.035156 -26.003906 34.335938 -26.296875 33.515625 -26.296875 L 5.09375 -26.296875 L 5.09375 -29.6875 L 33.515625 -29.6875 C 34.734375 -29.6875 35.820312 -29.410156 36.78125 -28.859375 C 37.738281 -28.316406 38.492188 -27.5625 39.046875 -26.59375 C 39.597656 -25.632812 39.875 -24.546875 39.875 -23.328125 L 39.875 -17.8125 C 39.875 -16.6875 39.664062 -15.613281 39.25 -14.59375 C 38.84375 -13.570312 38.285156 -12.664062 37.578125 -11.875 C 38.285156 -11.082031 38.84375 -10.179688 39.25 -9.171875 C 39.664062 -8.171875 39.875 -7.09375 39.875 -5.9375 L 39.875 0 Z M 1.703125 0 L 1.703125 -26.296875 L 5.09375 -26.296875 L 5.09375 0 Z M 1.703125 0 "/></g></g></g></g></g></g><g transform="matrix(1, 0, 0, 1, 102, 6)"><g clip-path="url(#502d4f9a23)"><g fill="#0d91fd" fill-opacity="1"><g transform="translate(1.101688, 41.401729)"><g><path d="M 33.96875 -5.953125 L 33.96875 -20.8125 C 33.96875 -21.632812 33.675781 -22.332031 33.09375 -22.90625 C 32.519531 -23.488281 31.820312 -23.78125 31 -23.78125 L 7.640625 -23.78125 L 7.640625 -29.734375 L 31 -29.734375 C 32.644531 -29.734375 34.140625 -29.328125 35.484375 -28.515625 C 36.828125 -27.710938 37.898438 -26.632812 38.703125 -25.28125 C 39.515625 -23.9375 39.921875 -22.445312 39.921875 -20.8125 L 39.921875 -5.953125 Z M 1.703125 0 L 1.703125 -23.78125 L 7.640625 -23.78125 L 7.640625 -5.953125 L 33.96875 -5.953125 L 33.96875 0 Z M 1.703125 0 "/></g></g></g><g fill="#0d91fd" fill-opacity="1"><g transform="translate(44.840059, 41.401729)"><g><path d="M 33.96875 -5.953125 L 33.96875 -20.8125 C 33.96875 -21.632812 33.675781 -22.332031 33.09375 -22.90625 C 32.519531 -23.488281 31.820312 -23.78125 31 -23.78125 L 7.640625 -23.78125 L 7.640625 -29.734375 L 31 -29.734375 C 32.644531 -29.734375 34.140625 -29.328125 35.484375 -28.515625 C 36.828125 -27.710938 37.898438 -26.632812 38.703125 -25.28125 C 39.515625 -23.9375 39.921875 -22.445312 39.921875 -20.8125 L 39.921875 -5.953125 Z M 10.625 0 C 8.976562 0 7.484375 -0.398438 6.140625 -1.203125 C 4.796875 -2.015625 3.71875 -3.09375 2.90625 -4.4375 C 2.101562 -5.78125 1.703125 -7.273438 1.703125 -8.921875 L 1.703125 -23.78125 L 7.640625 -23.78125 L 7.640625 -8.921875 C 7.640625 -8.097656 7.929688 -7.394531 8.515625 -6.8125 C 9.097656 -6.238281 9.800781 -5.953125 10.625 -5.953125 L 33.96875 -5.953125 L 33.96875 0 Z M 10.625 0 "/></g></g></g><g fill="#0d91fd" fill-opacity="1"><g transform="translate(88.578431, 41.401729)"><g><path d="M 1.703125 -5.953125 L 1.703125 -20.8125 C 1.703125 -22.445312 2.101562 -23.9375 2.90625 -25.28125 C 3.71875 -26.632812 4.796875 -27.710938 6.140625 -28.515625 C 7.484375 -29.328125 8.976562 -29.734375 10.625 -29.734375 L 33.96875 -29.734375 L 33.96875 -23.78125 L 10.625 -23.78125 C 9.800781 -23.78125 9.097656 -23.488281 8.515625 -22.90625 C 7.929688 -22.332031 7.640625 -21.632812 7.640625 -20.8125 L 7.640625 -5.953125 Z M 33.96875 -17.84375 L 33.96875 -23.78125 L 39.921875 -23.78125 L 39.921875 -17.84375 Z M 7.640625 0 L 7.640625 -5.953125 L 33.96875 -5.953125 L 33.96875 -8.921875 L 39.921875 -8.921875 L 39.921875 0 Z M 7.640625 0 "/></g></g></g></g></g></g></g></svg>